# ProBuilder 5.2.3
# https://unity3d.com/unity/features/worldbuilding/probuilder
# 12/17/2024 10:49:02 PM

mtllib ./brownRoom.mtl
o brownRoom

g brownRoom
v 8 36 0
v 8 36 4
v 4 36 0
v 4 36 4
v 8 36 8
v 4 36 8
v 0 36 0
v 0 36 4
v 0 36 8
v 8 0 0
v 8 0 4
v 8 4 0
v 8 4 4
v 4 0 0
v 4 4 0
v -24 0 40
v -28 0 40
v -24 4 40
v -28 4 40
v 0 0 0
v 0 4 0
v 8 0 8
v 8 4 8
v -56 0 4
v -56 0 0
v -56 4 4
v -56 4 0
v -32 0 40
v -32 4 40
v -56 0 8
v -56 4 8
v 8 8 0
v 8 8 4
v 4 8 0
v -24 8 40
v -28 8 40
v 0 8 0
v 8 8 8
v -56 8 4
v -56 8 0
v -32 8 40
v -56 8 8
v 4 0 8
v 8 0 16
v 4 0 16
v 8 4 16
v -56 0 16
v -56 4 16
v 8 8 16
v 0 0 8
v 0 0 16
v 4 36 16
v 8 36 16
v -56 8 16
v 0 36 16
v 8 0 24
v 4 0 24
v -56 0 24
v -56 4 24
v 0 0 24
v 4 36 24
v 8 36 24
v -56 8 24
v 0 36 24
v 8 0 32
v 4 0 32
v 8 4 24
v 8 4 32
v -56 0 32
v -56 4 32
v 8 8 24
v 8 8 32
v 0 0 32
v 4 36 32
v 8 36 32
v -56 8 32
v 0 36 32
v 8 16 32
v 4 16 32
v 8 16 40
v 4 16 40
v 8 4 40
v 8 0 40
v -56 0 40
v -56 4 40
v 8 8 40
v 0 16 32
v 0 16 40
v 4 36 40
v 8 36 40
v -56 8 40
v 0 36 40
v 4 0 40
v 0 0 40
v -4 0 40
v 0 4 40
v -8 0 0
v -8 4 0
v 0 8 40
v -8 0 40
v 4 8 40
v -4 8 40
v 0 0 4
v -8 0 8
v -8 0 4
v -8 16 40
v -8 16 32
v -8 36 32
v -8 36 40
v -8 0 32
v -8 0 24
v -8 36 24
v -8 0 16
v -8 36 16
v -8 36 8
v -8 8 40
v -8 36 4
v -8 8 0
v -8 36 0
v -12 0 40
v -8 4 40
v -16 0 0
v -16 4 0
v -16 0 40
v -12 8 40
v -8 8 8
v -8 8 4
v -16 8 8
v -16 8 4
v -16 0 32
v -16 36 32
v -16 36 40
v -16 0 24
v -16 36 24
v -16 0 16
v -16 36 16
v -8 4 16
v -8 4 8
v -16 4 16
v -16 4 8
v -16 36 8
v -16 8 40
v -16 8 0
v -16 36 4
v -16 36 0
v -20 0 40
v -16 4 40
v -24 0 0
v -24 4 0
v -20 8 40
v -24 8 8
v -24 8 4
v -24 0 32
v -24 36 32
v -24 36 40
v -24 0 24
v -24 36 24
v -24 0 16
v -24 36 16
v -16 0 8
v -24 0 8
v -24 36 8
v -24 8 0
v -24 36 4
v -24 36 0
v -32 0 0
v -32 4 0
v -24 0 4
v -32 0 8
v -32 0 4
v -32 0 32
v -32 36 32
v -32 36 40
v -32 0 24
v -32 36 24
v -32 0 16
v -32 36 16
v -32 36 8
v -32 36 4
v -32 8 0
v -32 36 0
v 8 16 4
v 8 16 8
v -32 16 0
v -24 16 0
v -56 16 4
v -56 16 0
v 8 16 0
v -16 16 0
v -8 16 0
v 0 16 0
v 4 16 0
v 8 16 16
v 8 16 24
v -16 16 40
v -24 16 40
v -56 16 32
v -56 16 24
v -32 16 40
v -56 16 40
v -56 16 16
v -56 16 8
v 8 28 4
v 8 28 8
v -32 28 0
v -24 28 0
v -56 28 4
v -56 28 0
v 8 28 0
v -16 28 0
v -8 28 0
v 0 28 0
v 4 28 0
v 8 28 16
v 8 28 24
v 8 28 32
v 4 28 40
v 0 28 40
v 8 28 40
v -8 28 40
v -16 28 40
v -24 28 40
v -56 28 32
v -56 28 24
v -32 28 40
v -56 28 40
v -56 28 16
v -56 28 8
v -56 36 4
v -56 36 0
v -56 36 32
v -56 36 24
v -56 36 40
v -56 36 16
v -56 36 8
v -40 36 40
v -40 36 32
v -40 36 24
v -40 36 16
v -40 28 40
v -40 36 8
v -40 36 4
v -40 36 0
v -40 16 0
v -40 8 0
v -40 28 0
v -40 4 0
v -40 0 0
v -40 0 4
v -40 0 8
v -40 0 16
v -40 0 24
v -40 0 32
v -40 0 40
v -40 4 40
v -40 16 40
v -40 8 40
v -48 36 40
v -48 36 32
v -48 36 24
v -48 36 16
v -48 28 40
v -48 36 8
v -48 36 4
v -48 36 0
v -48 16 0
v -48 8 0
v -48 28 0
v -48 4 0
v -48 0 0
v -48 0 8
v -48 0 16
v -40 4 16
v -40 4 24
v -48 4 16
v -48 4 24
v -40 4 32
v -48 4 32
v -48 4 40
v -48 0 40
v -48 16 40
v -48 8 40
v -48 16 -15.55975
v -48 8 -15.55975
v -56 16 -15.55975
v -56 8 -15.55975
v -48 4 -15.55975
v -56 4 -15.55975
v -48 0 -15.55975
v -56 0 -15.55975
v -48 0 4
v -16 0 4
v -8 8 32
v 4 8 32
v 0 8 32
v -24 4 16
v -24 4 8
v -8 2 16
v -16 2 16
v -8 6 16
v -16 6 16
v -24 6 16
v -24 2 16
v -24 7 16
v -16 7 16
v -24 9 16
v -16 9 16
v -8 7 16
v -8 9 16
v -40.07394 16 0
v -40.07394 8 0
v -40.07394 16 -7.792114
v -40.07394 8 -7.792114
v -56 16 -7.792114
v -48 16 -7.792114
v -48 0 -7.792114
v -56 0 -7.792114
v -56 8 -7.792114
v -40.07394 4 0
v -40.07394 4 -7.792114
v -56 4 -7.792114
v -40.07394 0 0
v -40.07394 0 -7.792114
v -40.02289 4 -7.792114
v -40.02289 0 -7.792114
v -40.02289 4 -15.55975
v -40.02289 0 -15.55975
v -40.02289 8 -7.792114
v -40.02289 8 -15.55975
v -40.02289 16 -7.792114
v -40.02289 16 -15.55975
v -39.93646 0 4
v -31.93646 0 4
v -31.93646 0 8
v -39.93646 0 8
v -39.93646 4 -15.55975
v -39.93646 8 -15.55975
v -39.93646 0 -7.792114
v -39.93646 0 -15.55975
v -39.93646 16 -15.55975
v -39.93646 16 -7.792114
v -39.93646 4 -7.792114
v -39.93646 8 -7.792114

vt 8 0
vt 8 4
vt 4 0
vt 4 4
vt 8 8
vt 4 8
vt 0 0
vt 0 4
vt 0 8
vt 24 0
vt 28 0
vt 24 4
vt 28 4
vt -4 0
vt -4 4
vt 32 0
vt 32 4
vt -8 0
vt -8 4
vt 24 8
vt 28 8
vt -4 8
vt 32 8
vt -8 8
vt -8 16
vt -4 16
vt 16 4
vt 16 0
vt -16 0
vt -16 4
vt 16 8
vt 0 16
vt 4 16
vt 8 16
vt -16 8
vt -8 24
vt -4 24
vt -24 0
vt -24 4
vt 0 24
vt 4 24
vt 8 24
vt -24 8
vt -8 32
vt -4 32
vt -32 0
vt -32 4
vt 0 32
vt 4 32
vt 8 32
vt -32 8
vt -8 40
vt -4 40
vt 40 4
vt 40 0
vt -40 0
vt -40 4
vt 40 8
vt 0 40
vt 4 40
vt 8 40
vt -40 8
vt 0 6
vt 2 6
vt 2 4
vt 12 40
vt 16 40
vt 16 32
vt -16 32
vt -16 40
vt 16 24
vt -16 24
vt 16 16
vt -16 16
vt 20 40
vt 24 40
vt 24 32
vt -24 32
vt -24 40
vt 24 24
vt -24 24
vt 24 16
vt -24 16
vt 28 40
vt 32 40
vt 32 32
vt -32 32
vt -32 40
vt 32 24
vt -32 24
vt 32 16
vt -32 16
vt 40 16
vt -40 16
vt 4 28
vt 8 28
vt -32 28
vt -24 28
vt -4 28
vt 0 28
vt -16 28
vt -8 28
vt 16 28
vt 24 28
vt 32 28
vt 40 28
vt -40 28
vt 4 36
vt 8 36
vt -32 36
vt -24 36
vt -4 36
vt 0 36
vt -16 36
vt -8 36
vt 16 36
vt 24 36
vt 32 36
vt 40 36
vt -40 36
vt -40 40
vt -40 32
vt -40 24
vt 40 24
vt 40 32
vt 40 40
vt -48 40
vt -48 32
vt -48 24
vt -48 16
vt 48 28
vt 48 36
vt -48 8
vt -48 4
vt -48 0
vt -48 36
vt -48 28
vt 48 8
vt 48 16
vt 48 24
vt 48 32
vt 48 40
vt 48 0
vt 48 4
vt -56 40
vt -56 32
vt -56 24
vt -56 16
vt 56 28
vt 56 36
vt -56 8
vt -56 4
vt -56 0
vt -56 36
vt -56 28
vt 56 0
vt 56 4
vt 56 8
vt 56 16
vt 56 24
vt 56 32
vt 56 40
vt -8 2
vt -16 2
vt -8 6
vt -16 6
vt -24 6
vt -24 2
vt 24 7
vt 16 7
vt 24 9
vt 16 9
vt 8 7
vt 8 9
vt -16 9
vt -24 9
vt -8 9
vt -7.792114 16
vt -7.792114 8
vt -56 -7.792114
vt -48 -7.792114
vt 48 -7.792114
vt 56 -7.792114
vt 7.792114 8
vt 7.792114 16
vt -7.792114 4
vt 7.792114 4
vt -7.792114 0
vt 7.792114 0
vt -15.55975 4
vt -15.55975 0
vt 15.55975 4
vt 15.55975 8
vt 48 -15.55975
vt 56 -15.55975
vt 15.55975 0
vt -15.55975 8
vt 15.55975 16
vt -15.55975 16
vt -56 -15.55975
vt -48 -15.55975
vt 40.07394 8
vt 40.07394 4
vt 40.07394 0
vt 40.07394 -7.792114
vt 40.07394 16
vt -40.07394 -7.792114
vt -40.07394 0
vt 39.93646 4
vt 31.93646 4
vt 31.93646 8
vt 39.93646 8
vt -39.93646 4
vt -39.93646 8
vt 39.93646 -7.792114
vt 39.93646 -15.55975
vt -39.93646 0
vt -39.93646 16
vt -39.93646 -15.55975
vt -39.93646 -7.792114
vt -40.02289 4
vt -40.02289 0
vt 40.02289 4
vt 40.02289 8
vt -40.02289 -7.792114
vt -40.02289 -15.55975
vt 39.93646 0
vt 40.02289 0
vt -40.02289 8
vt 39.93646 16
vt 40.02289 16
vt -40.02289 16
vt 40.02289 -15.55975
vt 40.02289 -7.792114

vn 0 -1 0
vn -1 0 0
vn 0 0 1
vn 0 0 -1
vn 1 0 0
vn 0 1 0
vn 0 0 0

usemtl OIP
f 1/1/1 2/2/1 4/4/1 3/3/1
f 2/2/1 5/5/1 6/6/1 4/4/1
f 3/3/1 4/4/1 8/8/1 7/7/1
f 4/4/1 6/6/1 9/9/1 8/8/1
f 6/6/1 5/5/1 53/34/1 52/33/1
f 9/9/1 6/6/1 52/33/1 55/32/1
f 52/33/1 53/34/1 62/42/1 61/41/1
f 55/32/1 52/33/1 61/41/1 64/40/1
f 61/41/1 62/42/1 75/50/1 74/49/1
f 64/40/1 61/41/1 74/49/1 77/48/1
f 74/49/1 75/50/1 90/61/1 89/60/1
f 77/48/1 74/49/1 89/60/1 92/59/1
f 83/52/7 93/53/7 95/60/7 94/59/7
f 93/53/7 94/59/7 100/61/7 95/60/7
f 101/53/7 86/52/7 99/59/7 102/60/7
f 77/48/1 92/59/1 109/52/1 108/44/1
f 64/40/1 77/48/1 108/44/1 112/36/1
f 55/32/1 64/40/1 112/36/1 114/25/1
f 9/9/1 55/32/1 114/25/1 115/24/1
f 99/59/7 101/53/7 102/60/7 116/61/7
f 8/8/1 9/9/1 115/24/1 117/19/1
f 7/7/1 8/8/1 117/19/1 119/18/1
f 94/59/7 95/60/7 120/66/7 100/61/7
f 95/60/7 100/61/7 124/67/7 120/66/7
f 102/60/7 99/59/7 116/61/7 125/66/7
f 108/44/1 109/52/1 132/70/1 131/69/1
f 112/36/1 108/44/1 131/69/1 134/72/1
f 114/25/1 112/36/1 134/72/1 136/74/1
f 115/24/1 114/25/1 136/74/1 141/35/1
f 116/61/7 102/60/7 125/66/7 142/67/7
f 117/19/1 115/24/1 141/35/1 144/30/1
f 119/18/1 117/19/1 144/30/1 145/29/1
f 100/61/7 120/66/7 146/75/7 124/67/7
f 120/66/7 124/67/7 16/76/7 146/75/7
f 125/66/7 116/61/7 142/67/7 150/75/7
f 131/69/1 132/70/1 155/79/1 154/78/1
f 134/72/1 131/69/1 154/78/1 157/81/1
f 136/74/1 134/72/1 157/81/1 159/83/1
f 141/35/1 136/74/1 159/83/1 162/43/1
f 142/67/7 125/66/7 150/75/7 35/76/7
f 144/30/1 141/35/1 162/43/1 164/39/1
f 145/29/1 144/30/1 164/39/1 165/38/1
f 124/67/7 146/75/7 17/84/7 16/76/7
f 146/75/7 16/76/7 28/85/7 17/84/7
f 150/75/7 142/67/7 35/76/7 36/84/7
f 154/78/1 155/79/1 173/88/1 172/87/1
f 157/81/1 154/78/1 172/87/1 175/90/1
f 159/83/1 157/81/1 175/90/1 177/92/1
f 162/43/1 159/83/1 177/92/1 178/51/1
f 35/76/7 150/75/7 36/84/7 41/85/7
f 164/39/1 162/43/1 178/51/1 179/47/1
f 165/38/1 164/39/1 179/47/1 181/46/1
f 236/121/1 237/122/1 172/87/1 173/88/1
f 238/123/1 239/94/1 177/92/1 175/90/1
f 237/122/1 238/123/1 175/90/1 172/87/1
f 239/94/1 241/62/1 178/51/1 177/92/1
f 241/62/1 242/57/1 179/47/1 178/51/1
f 242/57/1 243/56/1 181/46/1 179/47/1
f 258/127/1 259/128/1 237/122/1 236/121/1
f 260/129/1 261/130/1 239/94/1 238/123/1
f 259/128/1 260/129/1 238/123/1 237/122/1
f 261/130/1 263/133/1 241/62/1 239/94/1
f 263/133/1 264/134/1 242/57/1 241/62/1
f 264/134/1 265/135/1 243/56/1 242/57/1
f 275/139/6 276/140/6 274/124/6 273/93/6
f 276/140/6 278/141/6 277/125/6 274/124/6
f 233/145/1 231/146/1 259/128/1 258/127/1
f 232/147/1 234/148/1 261/130/1 260/129/1
f 231/146/1 232/147/1 260/129/1 259/128/1
f 234/148/1 235/151/1 263/133/1 261/130/1
f 235/151/1 229/152/1 264/134/1 263/133/1
f 229/152/1 230/153/1 265/135/1 264/134/1
f 48/159/6 59/160/6 276/140/6 275/139/6
f 59/160/6 70/161/6 278/141/6 276/140/6

usemtl White
f 43/22/6 103/8/6 50/9/6
f 11/19/6 10/18/6 14/14/6
f 14/14/6 20/7/6 103/8/6
f 11/19/6 14/14/6 103/8/6
f 103/8/6 43/22/6 11/19/6
f 43/22/6 22/24/6 11/19/6
f 45/26/6 57/37/6 56/36/6
f 56/36/6 44/25/6 45/26/6
f 51/32/6 60/40/6 57/37/6
f 57/37/6 45/26/6 51/32/6
f 79/45/6 81/53/6 80/52/6
f 80/52/6 78/44/6 79/45/6
f 87/48/6 88/59/6 81/53/6
f 81/53/6 79/45/6 87/48/6
f 60/40/6 111/42/6 110/50/6
f 110/50/6 73/48/6 60/40/6
f 50/9/6 104/5/6 113/34/6
f 113/34/6 51/32/6 50/9/6
f 127/2/6 129/27/6 128/31/6
f 128/31/6 126/5/6 127/2/6
f 110/50/6 130/68/6 124/67/6
f 124/67/6 100/61/6 110/50/6
f 113/34/6 135/73/6 133/71/6
f 133/71/6 111/42/6 113/34/6
f 118/1/6 143/28/6 129/27/6
f 129/27/6 127/2/6 118/1/6
f 129/27/6 152/12/6 151/20/6
f 151/20/6 128/31/6 129/27/6
f 133/71/6 156/80/6 153/77/6
f 153/77/6 130/68/6 133/71/6
f 160/31/6 161/20/6 158/82/6
f 158/82/6 135/73/6 160/31/6
f 143/28/6 163/10/6 152/12/6
f 152/12/6 129/27/6 143/28/6
f 168/12/6 170/17/6 169/23/6
f 169/23/6 161/20/6 168/12/6
f 153/77/6 171/86/6 28/85/6
f 28/85/6 16/76/6 153/77/6
f 158/82/6 176/91/6 174/89/6
f 174/89/6 156/80/6 158/82/6
f 148/10/6 166/16/6 170/17/6
f 170/17/6 168/12/6 148/10/6
f 251/93/6 176/91/6 169/23/6
f 169/23/6 250/58/6 251/93/6
f 253/125/6 171/86/6 174/89/6
f 174/89/6 252/124/6 253/125/6
f 286/151/3 284/133/3 283/130/3
f 283/130/3 285/148/3 286/151/3
f 288/152/3 287/134/3 284/133/3
f 284/133/3 286/151/3 288/152/3
f 47/159/6 272/139/6 271/138/6
f 271/138/6 30/158/6 47/159/6
f 279/134/3 280/135/3 254/56/3
f 254/56/3 255/57/3 279/134/3
f 59/12/2 58/10/2 69/16/2
f 69/16/2 70/17/2 59/12/2
f 277/47/5 253/46/5 252/38/5
f 252/38/5 274/39/5 277/47/5
f 275/144/4 272/143/4 47/156/4
f 47/156/4 48/157/4 275/144/4
f 274/39/5 252/38/5 251/29/5
f 251/29/5 273/30/5 274/39/5
f 273/54/4 251/55/4 272/143/4
f 272/143/4 275/144/4 273/54/4
f 152/43/3 168/38/3 292/29/3
f 292/29/3 129/35/3 152/43/3
f 129/35/3 292/29/3 105/18/3
f 105/18/3 127/24/3 129/35/3
f 118/5/4 97/1/4 122/28/4
f 122/28/4 143/31/4 118/5/4
f 292/27/6 160/31/6 104/5/6
f 104/5/6 105/2/6 292/27/6
f 127/19/1 126/24/1 128/35/1
f 128/35/1 129/30/1 127/19/1
f 168/12/6 161/20/6 160/31/6
f 160/31/6 292/27/6 168/12/6
f 101/6/3 93/3/3 83/1/3
f 83/1/3 86/5/3 101/6/3
f 72/24/4 65/18/4 66/14/4
f 66/14/4 294/22/4 72/24/4
f 86/62/5 83/56/5 65/46/5
f 65/46/5 72/51/5 86/62/5
f 99/9/3 94/7/3 93/3/3
f 93/3/3 101/6/3 99/9/3
f 294/22/4 66/14/4 73/7/4
f 73/7/4 295/9/4 294/22/4
f 81/33/3 101/6/3 86/5/3
f 86/5/3 80/34/3 81/33/3
f 78/25/4 72/24/4 294/22/4
f 294/22/4 79/26/4 78/25/4
f 80/94/5 86/62/5 72/51/5
f 72/51/5 78/92/5 80/94/5
f 88/32/3 99/9/3 101/6/3
f 101/6/3 81/33/3 88/32/3
f 79/26/4 294/22/4 295/9/4
f 295/9/4 87/32/4 79/26/4
f 313/179/2 311/9/2 310/32/2
f 310/32/2 312/178/2 313/179/2
f 317/183/6 25/156/6 270/143/6
f 270/143/6 316/182/6 317/183/6
f 314/185/5 187/32/5 40/9/5
f 40/9/5 318/184/5 314/185/5
f 320/186/2 319/8/2 311/9/2
f 311/9/2 313/179/2 320/186/2
f 318/184/5 40/9/5 27/8/5
f 27/8/5 321/187/5 318/184/5
f 286/193/5 318/184/5 321/187/5
f 321/187/5 288/192/5 286/193/5
f 290/195/6 317/183/6 316/182/6
f 316/182/6 289/194/6 290/195/6
f 326/190/2 324/186/2 328/179/2
f 328/179/2 329/197/2 326/190/2
f 285/198/5 314/185/5 318/184/5
f 318/184/5 286/193/5 285/198/5
f 329/197/2 328/179/2 330/178/2
f 330/178/2 331/199/2 329/197/2
f 319/203/4 269/144/4 267/138/4
f 267/138/4 311/202/4 319/203/4
f 323/205/6 316/182/6 270/143/6
f 270/143/6 322/204/6 323/205/6
f 311/202/4 267/138/4 266/139/4
f 266/139/4 310/206/4 311/202/4
f 333/210/7 249/54/7 291/144/7
f 291/144/7 332/209/7 333/210/7
f 335/212/7 271/138/7 250/58/7
f 250/58/7 334/211/7 335/212/7
f 332/209/6 291/144/6 271/138/6
f 271/138/6 335/212/6 332/209/6
f 337/214/3 284/133/3 287/134/3
f 287/134/3 336/213/3 337/214/3
f 339/216/6 289/194/6 316/182/6
f 316/182/6 338/215/6 339/216/6
f 340/218/3 283/130/3 284/133/3
f 284/133/3 337/214/3 340/218/3
f 128/35/1 151/43/1 152/39/1
f 152/39/1 129/30/1 128/35/1
f 329/224/4 337/212/4 336/209/4
f 336/209/4 326/223/4 329/224/4
f 324/221/3 342/213/3 343/214/3
f 343/214/3 328/229/3 324/221/3
f 331/231/4 340/230/4 337/212/4
f 337/212/4 329/224/4 331/231/4
f 328/229/3 343/214/3 341/218/3
f 341/218/3 330/232/3 328/229/3
f 330/234/6 341/215/6 340/216/6
f 340/216/6 331/233/6 330/234/6

usemtl black
f 22/24/6 43/22/6 45/26/6 44/25/6
f 43/22/6 50/9/6 51/32/6 45/26/6
f 56/36/6 57/37/6 66/45/6 65/44/6
f 57/37/6 60/40/6 73/48/6 66/45/6
f 50/9/6 103/8/6 105/2/6 104/5/6
f 88/59/6 87/48/6 107/50/6 106/61/6
f 60/63/6 51/8/6 113/65/6 111/64/6
f 103/8/6 20/7/6 97/1/6 105/2/6
f 110/50/6 111/42/6 133/71/6 130/68/6
f 137/34/6 138/5/6 140/31/6 139/73/6
f 124/67/6 130/68/6 153/77/6 16/76/6
f 133/71/6 135/73/6 158/82/6 156/80/6
f 153/77/6 156/80/6 174/89/6 171/86/6
f 158/82/6 161/20/6 169/23/6 176/91/6
f 249/54/6 250/58/6 169/23/6 170/17/6
f 251/93/6 252/124/6 174/89/6 176/91/6
f 253/125/6 254/126/6 28/85/6 171/86/6
f 271/138/6 272/139/6 251/93/6 250/58/6
f 278/141/6 279/142/6 255/126/6 277/125/6
f 25/156/6 24/157/6 291/144/6 270/143/6
f 24/157/6 30/158/6 271/138/6 291/144/6
f 70/161/6 85/162/6 279/142/6 278/141/6
f 277/47/5 255/57/5 254/56/5 253/46/5
f 279/134/3 85/152/3 84/153/3 280/135/3
f 85/54/2 70/17/2 69/16/2 84/55/2
f 59/12/2 48/27/2 47/28/2 58/10/2
f 127/22/5 126/24/5 104/18/5 105/14/5
f 151/5/2 152/6/2 168/3/2 161/1/2
f 118/9/5 127/22/5 105/14/5 97/7/5
f 152/6/2 163/9/2 148/7/2 168/3/2
f 163/20/4 143/31/4 122/28/4 148/10/4
f 168/14/5 152/22/5 151/24/5 161/18/5
f 116/58/2 293/23/2 110/16/2 100/55/2
f 99/9/3 116/24/3 100/18/3 94/7/3
f 293/5/4 295/9/4 73/7/4 110/1/4
f 106/93/2 107/91/2 293/23/2 116/58/2
f 88/32/3 106/25/3 116/24/3 99/9/3
f 107/34/4 87/32/4 295/9/4 293/5/4
f 140/27/4 138/2/4 104/1/4 160/28/4
f 158/83/1 161/43/1 160/35/1 135/74/1
f 161/10/4 297/12/4 140/27/4 160/28/4
f 297/20/6 296/82/6 139/73/6 140/31/6
f 249/54/6 170/17/6 166/16/6 248/55/6
f 126/5/2 127/6/2 105/3/2 104/1/2

usemtl gothic1
f 33/6/2 38/5/2 183/34/2 182/33/2
f 180/51/3 163/43/3 185/83/3 184/92/3
f 39/22/5 40/9/5 187/32/5 186/26/5
f 32/9/2 33/6/2 182/33/2 188/32/2
f 163/43/3 143/35/3 189/74/3 185/83/3
f 143/35/3 118/24/3 190/25/3 189/74/3
f 118/24/3 37/9/3 191/32/3 190/25/3
f 37/9/3 34/6/3 192/33/3 191/32/3
f 34/6/3 32/5/3 188/34/3 192/33/3
f 38/5/2 49/31/2 193/73/2 183/34/2
f 71/20/2 72/23/2 78/91/2 194/82/2
f 101/22/4 99/9/4 88/32/4 81/26/4
f 72/23/2 86/58/2 80/93/2 78/91/2
f 86/24/4 101/22/4 81/26/4 80/25/4
f 99/9/4 116/5/4 106/34/4 88/32/4
f 116/5/4 142/31/4 195/73/4 106/34/4
f 142/31/4 35/20/4 196/82/4 195/73/4
f 76/51/5 63/43/5 198/83/5 197/92/5
f 35/20/4 41/23/4 199/91/4 196/82/4
f 91/62/5 76/51/5 197/92/5 200/94/5
f 63/43/5 54/35/5 201/74/5 198/83/5
f 54/35/5 42/24/5 202/25/5 201/74/5
f 42/24/5 39/22/5 186/26/5 202/25/5
f 244/94/3 245/62/3 180/51/3 184/92/3
f 257/58/4 256/93/4 199/91/4 41/23/4
f 266/130/3 267/133/3 245/62/3 244/94/3
f 282/138/4 281/139/4 256/93/4 257/58/4
f 91/158/4 200/159/4 281/139/4 282/138/4
f 314/180/1 315/181/1 266/135/1 187/153/1
f 285/200/1 283/201/1 315/181/1 314/180/1
f 312/207/1 310/208/1 266/135/1 315/181/1
f 340/219/1 341/220/1 315/181/1 283/201/1

usemtl Brown
f 10/7/2 11/3/2 13/4/2 12/8/2
f 14/3/3 10/1/3 12/2/3 15/4/3
f 16/10/4 17/11/4 19/13/4 18/12/4
f 20/7/3 14/3/3 15/4/3 21/8/3
f 11/3/2 22/1/2 23/2/2 13/4/2
f 24/14/5 25/7/5 27/8/5 26/15/5
f 17/11/4 28/16/4 29/17/4 19/13/4
f 30/18/5 24/14/5 26/15/5 31/19/5
f 12/8/2 13/4/2 33/6/2 32/9/2
f 15/4/3 12/2/3 32/5/3 34/6/3
f 18/12/4 19/13/4 36/21/4 35/20/4
f 21/8/3 15/4/3 34/6/3 37/9/3
f 13/4/2 23/2/2 38/5/2 33/6/2
f 26/15/5 27/8/5 40/9/5 39/22/5
f 19/13/4 29/17/4 41/23/4 36/21/4
f 31/19/5 26/15/5 39/22/5 42/24/5
f 23/2/2 22/1/2 44/28/2 46/27/2
f 30/18/5 31/19/5 48/30/5 47/29/5
f 38/5/2 23/2/2 46/27/2 49/31/2
f 31/19/5 42/24/5 54/35/5 48/30/5
f 47/29/5 48/30/5 59/39/5 58/38/5
f 48/30/5 54/35/5 63/43/5 59/39/5
f 67/12/2 56/10/2 65/16/2 68/17/2
f 58/38/5 59/39/5 70/47/5 69/46/5
f 71/20/2 67/12/2 68/17/2 72/23/2
f 59/39/5 63/43/5 76/51/5 70/47/5
f 68/17/2 65/16/2 83/55/2 82/54/2
f 69/46/5 70/47/5 85/57/5 84/56/5
f 72/23/2 68/17/2 82/54/2 86/58/2
f 70/47/5 76/51/5 91/62/5 85/57/5
f 82/19/4 83/18/4 94/7/4 96/8/4
f 20/7/3 21/8/3 98/19/3 97/18/3
f 86/24/4 82/19/4 96/8/4 99/9/4
f 21/8/3 37/9/3 118/24/3 98/19/3
f 96/8/4 94/7/4 100/1/4 121/2/4
f 97/18/3 98/19/3 123/30/3 122/29/3
f 99/9/4 96/8/4 121/2/4 116/5/4
f 98/19/3 118/24/3 143/35/3 123/30/3
f 121/2/4 100/1/4 124/28/4 147/27/4
f 122/29/3 123/30/3 149/39/3 148/38/3
f 116/5/4 121/2/4 147/27/4 142/31/4
f 123/30/3 143/35/3 163/43/3 149/39/3
f 147/27/4 124/28/4 16/10/4 18/12/4
f 148/38/3 149/39/3 167/47/3 166/46/3
f 142/31/4 147/27/4 18/12/4 35/20/4
f 149/39/3 163/43/3 180/51/3 167/47/3
f 182/33/2 183/34/2 204/96/2 203/95/2
f 184/92/3 185/83/3 206/98/3 205/97/3
f 186/26/5 187/32/5 208/100/5 207/99/5
f 188/32/2 182/33/2 203/95/2 209/100/2
f 185/83/3 189/74/3 210/101/3 206/98/3
f 189/74/3 190/25/3 211/102/3 210/101/3
f 190/25/3 191/32/3 212/100/3 211/102/3
f 191/32/3 192/33/3 213/95/3 212/100/3
f 192/33/3 188/34/3 209/96/3 213/95/3
f 183/34/2 193/73/2 214/103/2 204/96/2
f 193/73/2 194/82/2 215/104/2 214/103/2
f 194/82/2 78/91/2 216/105/2 215/104/2
f 81/26/4 88/32/4 218/100/4 217/99/4
f 78/91/2 80/93/2 219/106/2 216/105/2
f 80/25/4 81/26/4 217/99/4 219/102/4
f 88/32/4 106/34/4 220/96/4 218/100/4
f 106/34/4 195/73/4 221/103/4 220/96/4
f 195/73/4 196/82/4 222/104/4 221/103/4
f 197/92/5 198/83/5 224/98/5 223/97/5
f 196/82/4 199/91/4 225/105/4 222/104/4
f 200/94/5 197/92/5 223/97/5 226/107/5
f 198/83/5 201/74/5 227/101/5 224/98/5
f 201/74/5 202/25/5 228/102/5 227/101/5
f 202/25/5 186/26/5 207/99/5 228/102/5
f 203/95/2 204/96/2 5/109/2 2/108/2
f 205/97/3 206/98/3 165/111/3 181/110/3
f 207/99/5 208/100/5 230/113/5 229/112/5
f 209/100/2 203/95/2 2/108/2 1/113/2
f 206/98/3 210/101/3 145/114/3 165/111/3
f 210/101/3 211/102/3 119/115/3 145/114/3
f 211/102/3 212/100/3 7/113/3 119/115/3
f 212/100/3 213/95/3 3/108/3 7/113/3
f 213/95/3 209/96/3 1/109/3 3/108/3
f 204/96/2 214/103/2 53/116/2 5/109/2
f 214/103/2 215/104/2 62/117/2 53/116/2
f 215/104/2 216/105/2 75/118/2 62/117/2
f 217/99/4 218/100/4 92/113/4 89/112/4
f 216/105/2 219/106/2 90/119/2 75/118/2
f 219/102/4 217/99/4 89/112/4 90/115/4
f 218/100/4 220/96/4 109/109/4 92/113/4
f 220/96/4 221/103/4 132/116/4 109/109/4
f 221/103/4 222/104/4 155/117/4 132/116/4
f 223/97/5 224/98/5 232/111/5 231/110/5
f 222/104/4 225/105/4 173/118/4 155/117/4
f 226/107/5 223/97/5 231/110/5 233/120/5
f 224/98/5 227/101/5 234/114/5 232/111/5
f 227/101/5 228/102/5 235/115/5 234/114/5
f 228/102/5 207/99/5 229/112/5 235/115/5
f 240/106/4 236/119/4 173/118/4 225/105/4
f 243/120/3 246/107/3 205/97/3 181/110/3
f 246/107/3 244/94/3 184/92/3 205/97/3
f 245/62/3 247/57/3 167/47/3 180/51/3
f 247/57/3 248/56/3 166/46/3 167/47/3
f 254/55/4 255/54/4 29/17/4 28/16/4
f 256/93/4 240/106/4 225/105/4 199/91/4
f 255/54/4 257/58/4 41/23/4 29/17/4
f 262/131/4 258/132/4 236/119/4 240/106/4
f 265/136/3 268/137/3 246/107/3 243/120/3
f 268/137/3 266/130/3 244/94/3 246/107/3
f 267/133/3 269/134/3 247/57/3 245/62/3
f 269/134/3 270/135/3 248/56/3 247/57/3
f 280/143/4 279/144/4 255/54/4 254/55/4
f 281/139/4 262/131/4 240/106/4 256/93/4
f 279/144/4 282/138/4 257/58/4 255/54/4
f 226/149/4 233/150/4 258/132/4 262/131/4
f 230/154/3 208/155/3 268/137/3 265/136/3
f 208/155/3 187/148/3 266/130/3 268/137/3
f 288/152/3 290/153/3 289/135/3 287/134/3
f 84/156/4 85/157/4 279/144/4 280/143/4
f 200/159/4 226/149/4 262/131/4 281/139/4
f 85/157/4 91/158/4 282/138/4 279/144/4
f 320/186/2 323/188/2 322/7/2 319/8/2
f 317/189/5 321/187/5 27/8/5 25/7/5
f 326/190/2 327/191/2 325/188/2 324/186/2
f 290/196/5 288/192/5 321/187/5 317/189/5
f 319/203/4 322/204/4 270/143/4 269/144/4
f 339/217/3 336/213/3 287/134/3 289/135/3
f 324/221/3 325/222/3 338/217/3 342/213/3
f 325/225/1 327/226/1 339/219/1 338/220/1
f 327/228/4 326/223/4 336/209/4 339/227/4

usemtl silver
f 296/27/2 297/2/2 161/1/2 158/28/2
f 138/19/5 137/30/5 113/29/5 104/18/5
f 300/165/3 301/166/3 299/164/3 298/163/3
f 302/167/3 303/168/3 299/164/3 301/166/3
f 298/163/3 299/164/3 135/29/3 113/18/3
f 300/34/7 298/34/7 113/34/7 137/34/7
f 306/171/4 307/172/4 305/170/4 304/169/4
f 307/172/4 309/174/4 308/173/4 305/170/4
f 299/164/3 303/168/3 158/38/3 135/29/3
f 303/82/7 302/82/7 296/82/7 158/82/7
f 304/169/4 305/170/4 139/27/4 296/12/4
f 306/82/7 304/82/7 296/82/7 302/82/7
f 308/34/7 309/34/7 300/34/7 137/34/7
f 307/175/3 306/176/3 302/167/3 301/166/3
f 305/170/4 308/173/4 137/2/4 139/27/4
f 309/177/3 307/175/3 301/166/3 300/165/3

