# ProBuilder 5.2.3
# https://unity3d.com/unity/features/worldbuilding/probuilder
# 12/17/2024 10:47:33 PM

mtllib ./L-Shape.mtl
o L-Shape

g L-Shape
v 8 16 -8
v 8 16 0
v 0 16 -8
v 0 16 0
v 8 0 0
v 0 0 0
v 8 8 0
v 0 8 0
v 0 0 -8
v 0 8 -8
v 8 0 -8
v 0 0 -16
v 8 0 -16
v 0 8 -16
v 8 8 -8
v 8 8 -16
v 0 16 -16
v 8 16 -16
v 0 0 -24
v 8 0 -24
v 0 8 -24
v 8 8 -24
v 0 16 -24
v 8 16 -24
v 0 0 -32
v 8 0 -32
v 0 8 -32
v 8 8 -32
v 0 16 -32
v 8 16 -32
v 0 0 -40
v 8 0 -40
v 0 8 -40
v 8 8 -40
v 0 16 -40
v 8 16 -40
v 16 0 -8
v 16 0 0
v 16 8 -8
v 16 8 0
v 16 16 -8
v 16 16 0
v 24 0 -8
v 24 0 0
v 24 8 -8
v 24 8 0
v 24 16 -8
v 24 16 0
v 32 0 -8
v 32 0 0
v 32 8 -8
v 32 8 0
v 32 16 -8
v 32 16 0
v 40 0 -8
v 40 0 0
v 40 8 -8
v 40 8 0
v 40 16 -8
v 40 16 0

vt 8 -8
vt 8 0
vt 0 -8
vt 0 0
vt -8 0
vt -8 8
vt 0 8
vt 8 8
vt -8 16
vt 0 16
vt 8 16
vt -8 -8
vt 0 -16
vt -8 -16
vt 16 8
vt 16 0
vt -16 0
vt -16 8
vt 16 16
vt -16 16
vt 8 -16
vt 0 -24
vt -8 -24
vt 24 8
vt 24 0
vt -24 0
vt -24 8
vt 24 16
vt -24 16
vt 8 -24
vt 0 -32
vt -8 -32
vt 32 8
vt 32 0
vt -32 0
vt -32 8
vt 32 16
vt -32 16
vt 8 -32
vt 0 -40
vt -8 -40
vt 40 8
vt 40 0
vt -40 0
vt -40 8
vt 40 16
vt -40 16
vt 8 -40
vt -16 -8
vt 16 -8
vt -24 -8
vt 24 -8
vt -32 -8
vt 32 -8
vt -40 -8
vt 40 -8

vn 0 -1 0
vn 0 0 -1
vn 1 0 0
vn 0 1 0
vn -1 0 0
vn 0 0 1

usemtl ProBuilderDefault
f 1/1/1 2/2/1 4/4/1 3/3/1
f 5/5/2 6/4/2 8/7/2 7/6/2
f 6/4/3 9/2/3 10/8/3 8/7/3
f 7/6/2 8/7/2 4/10/2 2/9/2
f 8/7/3 10/8/3 3/11/3 4/10/3
f 9/3/4 11/12/4 13/14/4 12/13/4
f 10/8/3 9/2/3 12/16/3 14/15/3
f 11/5/5 15/6/5 16/18/5 13/17/5
f 3/11/3 10/8/3 14/15/3 17/19/3
f 15/6/5 1/9/5 18/20/5 16/18/5
f 1/1/1 3/3/1 17/13/1 18/21/1
f 12/13/4 13/14/4 20/23/4 19/22/4
f 14/15/3 12/16/3 19/25/3 21/24/3
f 13/17/5 16/18/5 22/27/5 20/26/5
f 17/19/3 14/15/3 21/24/3 23/28/3
f 16/18/5 18/20/5 24/29/5 22/27/5
f 18/21/1 17/13/1 23/22/1 24/30/1
f 19/22/4 20/23/4 26/32/4 25/31/4
f 21/24/3 19/25/3 25/34/3 27/33/3
f 20/26/5 22/27/5 28/36/5 26/35/5
f 23/28/3 21/24/3 27/33/3 29/37/3
f 22/27/5 24/29/5 30/38/5 28/36/5
f 24/30/1 23/22/1 29/31/1 30/39/1
f 25/31/4 26/32/4 32/41/4 31/40/4
f 27/33/3 25/34/3 31/43/3 33/42/3
f 26/35/5 28/36/5 34/45/5 32/44/5
f 29/37/3 27/33/3 33/42/3 35/46/3
f 28/36/5 30/38/5 36/47/5 34/45/5
f 30/39/1 29/31/1 35/40/1 36/48/1
f 11/12/4 5/5/4 38/17/4 37/49/4
f 15/8/6 11/2/6 37/16/6 39/15/6
f 5/5/2 7/6/2 40/18/2 38/17/2
f 1/11/6 15/8/6 39/15/6 41/19/6
f 7/6/2 2/9/2 42/20/2 40/18/2
f 2/2/1 1/1/1 41/50/1 42/16/1
f 37/49/4 38/17/4 44/26/4 43/51/4
f 39/15/6 37/16/6 43/25/6 45/24/6
f 38/17/2 40/18/2 46/27/2 44/26/2
f 41/19/6 39/15/6 45/24/6 47/28/6
f 40/18/2 42/20/2 48/29/2 46/27/2
f 42/16/1 41/50/1 47/52/1 48/25/1
f 43/51/4 44/26/4 50/35/4 49/53/4
f 45/24/6 43/25/6 49/34/6 51/33/6
f 44/26/2 46/27/2 52/36/2 50/35/2
f 47/28/6 45/24/6 51/33/6 53/37/6
f 46/27/2 48/29/2 54/38/2 52/36/2
f 48/25/1 47/52/1 53/54/1 54/34/1
f 49/53/4 50/35/4 56/44/4 55/55/4
f 51/33/6 49/34/6 55/43/6 57/42/6
f 50/35/2 52/36/2 58/45/2 56/44/2
f 53/37/6 51/33/6 57/42/6 59/46/6
f 52/36/2 54/38/2 60/47/2 58/45/2
f 54/34/1 53/54/1 59/56/1 60/43/1
f 6/4/4 5/5/4 11/12/4 9/3/4

